<svg version="1.1" width="400" height="400" viewBox="0 100 400 400" xmlns="http://www.w3.org/2000/svg" xmlns:xlink="http://www.w3.org/1999/xlink"><g id="svgg"><path id="path0" d="M85.156 134.740 C 85.982 134.975,85.831 135.062,84.180 135.305 C 78.309 136.171,71.216 138.922,66.373 142.210 C 65.002 143.141,63.528 143.876,63.098 143.844 C 62.601 143.806,62.489 143.892,62.790 144.078 C 63.281 144.382,58.830 148.633,58.021 148.633 C 57.799 148.633,57.614 148.809,57.611 149.023 C 57.597 149.938,56.952 150.500,56.555 149.944 C 56.270 149.545,56.233 149.589,56.405 150.120 C 56.658 150.902,53.043 156.038,52.572 155.566 C 52.424 155.418,52.430 155.628,52.585 156.033 C 52.773 156.524,52.724 156.680,52.437 156.503 C 52.201 156.357,51.880 156.443,51.724 156.695 C 51.538 156.997,51.612 157.047,51.943 156.842 C 52.219 156.671,52.369 156.688,52.277 156.879 C 48.931 163.775,48.102 165.990,46.882 171.289 C 46.634 172.363,46.334 177.238,46.213 182.121 C 46.093 187.018,45.842 190.906,45.653 190.790 C 45.466 190.674,45.333 191.248,45.359 192.067 C 45.404 193.537,45.408 193.541,45.704 192.383 C 45.869 191.738,45.980 241.951,45.951 303.967 C 45.922 365.982,46.006 416.656,46.137 416.575 C 46.268 416.494,46.486 417.484,46.621 418.776 C 46.934 421.773,48.225 426.835,49.434 429.813 C 49.952 431.087,50.263 432.327,50.125 432.569 C 49.988 432.810,50.014 432.882,50.185 432.727 C 50.356 432.573,51.093 433.438,51.822 434.650 C 52.850 436.357,53.036 436.934,52.649 437.213 C 52.287 437.474,52.332 437.515,52.812 437.361 C 53.470 437.151,55.405 439.620,55.164 440.361 C 55.106 440.538,55.219 440.584,55.415 440.463 C 55.929 440.145,56.761 441.286,56.419 441.840 C 56.252 442.109,56.294 442.206,56.517 442.069 C 57.013 441.762,59.882 444.675,59.481 445.077 C 59.315 445.242,59.355 445.320,59.570 445.250 C 59.977 445.118,61.785 446.238,61.619 446.519 C 61.566 446.608,61.578 446.654,61.646 446.623 C 61.713 446.591,63.450 447.690,65.505 449.064 C 67.560 450.438,69.405 451.563,69.605 451.563 C 69.805 451.563,69.843 451.765,69.689 452.013 C 69.527 452.277,69.581 452.359,69.820 452.211 C 70.273 451.932,75.125 453.632,74.928 454.001 C 74.860 454.128,74.965 454.378,75.160 454.557 C 75.367 454.746,75.398 454.678,75.235 454.395 C 75.059 454.089,75.191 453.906,75.586 453.906 C 75.934 453.906,76.117 454.070,75.993 454.270 C 75.870 454.470,75.974 454.761,76.226 454.916 C 76.511 455.093,76.579 455.030,76.404 454.748 C 76.095 454.247,76.669 454.179,78.060 454.552 C 78.644 454.708,78.808 454.897,78.516 455.078 C 78.217 455.263,78.341 455.434,78.874 455.573 C 79.391 455.709,79.595 455.635,79.432 455.371 C 79.259 455.091,79.607 455.042,80.505 455.222 C 81.237 455.368,83.593 455.590,85.742 455.714 C 91.016 456.020,314.809 456.119,314.621 455.815 C 314.476 455.580,318.131 455.040,320.573 454.936 C 321.253 454.907,321.736 454.809,321.645 454.718 C 321.555 454.628,322.668 454.173,324.119 453.708 C 327.490 452.628,331.959 450.365,335.001 448.197 C 336.311 447.263,337.513 446.627,337.670 446.784 C 337.827 446.942,337.900 446.895,337.832 446.680 C 337.701 446.270,342.847 441.072,343.172 441.284 C 343.275 441.351,343.279 441.297,343.181 441.163 C 342.876 440.747,344.985 438.274,345.416 438.541 C 345.640 438.679,345.712 438.612,345.576 438.391 C 345.439 438.171,346.203 436.533,347.273 434.753 C 348.343 432.973,349.219 431.358,349.219 431.165 C 349.219 430.971,349.422 430.939,349.670 431.092 C 349.947 431.264,350.015 431.199,349.845 430.925 C 349.693 430.679,350.031 429.202,350.596 427.642 C 353.449 419.758,353.205 431.303,353.307 299.609 C 353.363 227.711,353.253 179.858,353.025 176.758 C 352.820 173.965,352.627 171.125,352.596 170.447 C 352.565 169.770,352.407 169.297,352.246 169.396 C 352.085 169.496,351.953 169.292,351.953 168.943 C 351.953 168.594,351.228 166.431,350.341 164.135 C 349.455 161.839,348.714 159.666,348.695 159.306 C 348.676 158.946,348.551 158.719,348.417 158.802 C 348.283 158.885,347.768 158.213,347.272 157.308 C 346.777 156.404,345.948 155.092,345.430 154.392 C 344.912 153.693,344.613 152.918,344.765 152.672 C 344.926 152.412,344.871 152.329,344.636 152.474 C 344.084 152.816,343.220 151.713,343.581 151.129 C 343.744 150.865,343.706 150.762,343.493 150.894 C 343.285 151.023,342.159 150.145,340.991 148.944 C 339.823 147.742,337.549 145.702,335.938 144.411 C 334.326 143.119,333.045 141.935,333.090 141.780 C 333.135 141.625,332.960 141.513,332.700 141.530 C 332.439 141.548,330.381 140.659,328.125 139.554 C 325.869 138.449,323.145 137.262,322.070 136.914 C 320.996 136.567,319.854 136.181,319.531 136.056 C 318.790 135.769,318.329 135.690,315.343 135.335 C 314.006 135.177,313.003 134.899,313.115 134.719 C 313.227 134.538,261.762 134.406,198.749 134.426 C 135.736 134.446,84.619 134.587,85.156 134.740 M316.641 152.156 C 325.992 154.199,333.960 161.850,336.976 171.680 C 338.097 175.332,338.100 416.854,336.979 420.484 C 334.197 429.498,326.547 436.859,316.992 439.716 C 314.068 440.590,90.742 441.073,85.156 440.217 C 74.125 438.527,64.815 429.856,62.239 418.872 C 61.153 414.240,61.120 178.098,62.205 173.445 C 65.309 160.133,75.562 152.083,90.039 151.592 C 106.969 151.018,313.788 151.532,316.641 152.156 M45.411 183.008 C 45.415 183.867,45.495 184.173,45.589 183.687 C 45.682 183.201,45.679 182.498,45.581 182.124 C 45.483 181.751,45.407 182.148,45.411 183.008 M45.411 186.133 C 45.415 186.992,45.495 187.298,45.589 186.812 C 45.682 186.326,45.679 185.623,45.581 185.249 C 45.483 184.876,45.407 185.273,45.411 186.133 M45.403 195.313 C 45.403 196.064,45.484 196.372,45.582 195.996 C 45.680 195.620,45.680 195.005,45.582 194.629 C 45.484 194.253,45.403 194.561,45.403 195.313 M45.403 204.688 C 45.403 205.439,45.484 205.747,45.582 205.371 C 45.680 204.995,45.680 204.380,45.582 204.004 C 45.484 203.628,45.403 203.936,45.403 204.688 M45.403 210.938 C 45.403 211.689,45.484 211.997,45.582 211.621 C 45.680 211.245,45.680 210.630,45.582 210.254 C 45.484 209.878,45.403 210.186,45.403 210.938 M45.411 214.648 C 45.415 215.508,45.495 215.813,45.589 215.327 C 45.682 214.842,45.679 214.138,45.581 213.765 C 45.483 213.392,45.407 213.789,45.411 214.648 M45.403 217.578 C 45.403 218.330,45.484 218.638,45.582 218.262 C 45.680 217.886,45.680 217.271,45.582 216.895 C 45.484 216.519,45.403 216.826,45.403 217.578 M45.403 220.313 C 45.403 221.064,45.484 221.372,45.582 220.996 C 45.680 220.620,45.680 220.005,45.582 219.629 C 45.484 219.253,45.403 219.561,45.403 220.313 M115.991 233.105 C 110.586 235.847,109.149 244.249,113.203 249.403 C 113.896 250.284,117.899 253.974,126.562 261.719 C 128.845 263.760,137.206 271.335,145.142 278.552 C 153.077 285.769,161.532 293.416,163.929 295.544 C 166.327 297.673,168.304 299.518,168.324 299.645 C 168.343 299.772,166.206 301.985,163.574 304.563 C 155.839 312.139,118.796 348.048,115.879 350.798 C 107.545 358.653,110.197 371.107,120.199 371.090 C 124.421 371.083,124.876 370.728,143.608 352.876 C 153.045 343.882,167.529 330.109,175.794 322.269 C 194.938 304.109,193.921 305.159,194.730 302.723 C 196.626 297.016,195.785 295.777,181.055 282.593 C 176.758 278.747,169.375 272.080,164.648 267.779 C 156.931 260.756,137.154 242.851,129.956 236.371 C 124.936 231.851,120.506 230.815,115.991 233.105 M45.411 254.492 C 45.415 255.352,45.495 255.657,45.589 255.171 C 45.682 254.685,45.679 253.982,45.581 253.609 C 45.483 253.235,45.407 253.633,45.411 254.492 M45.411 311.133 C 45.415 311.992,45.495 312.298,45.589 311.812 C 45.682 311.326,45.679 310.623,45.581 310.249 C 45.483 309.876,45.407 310.273,45.411 311.133 M45.419 317.578 C 45.419 318.545,45.495 318.940,45.588 318.457 C 45.681 317.974,45.681 317.183,45.588 316.699 C 45.495 316.216,45.419 316.611,45.419 317.578 M45.411 326.758 C 45.415 327.617,45.495 327.923,45.589 327.437 C 45.682 326.951,45.679 326.248,45.581 325.874 C 45.483 325.501,45.407 325.898,45.411 326.758 M45.403 342.578 C 45.403 343.330,45.484 343.638,45.582 343.262 C 45.680 342.886,45.680 342.271,45.582 341.895 C 45.484 341.519,45.403 341.826,45.403 342.578 M204.480 352.516 C 203.427 353.569,202.957 366.977,203.911 368.759 C 204.711 370.254,206.166 370.308,245.703 370.308 C 285.240 370.308,286.695 370.254,287.495 368.759 C 288.353 367.156,287.990 353.336,287.068 352.502 C 286.273 351.782,284.949 351.755,245.845 351.655 L 205.444 351.552 204.480 352.516 M45.411 370.898 C 45.415 371.758,45.495 372.063,45.589 371.577 C 45.682 371.092,45.679 370.388,45.581 370.015 C 45.483 369.642,45.407 370.039,45.411 370.898 M45.403 389.453 C 45.403 390.205,45.484 390.513,45.582 390.137 C 45.680 389.761,45.680 389.146,45.582 388.770 C 45.484 388.394,45.403 388.701,45.403 389.453 M45.411 395.508 C 45.415 396.367,45.495 396.673,45.589 396.187 C 45.682 395.701,45.679 394.998,45.581 394.624 C 45.483 394.251,45.407 394.648,45.411 395.508 M50.000 434.842 C 50.000 435.061,50.252 435.143,50.561 435.025 C 50.869 434.906,51.207 434.980,51.313 435.188 C 51.418 435.396,51.464 435.358,51.414 435.102 C 51.304 434.531,50.000 434.290,50.000 434.842 " stroke="none" fill="#faa74d" fill-rule="evenodd"></path><path id="path1" d="M82.900 152.316 C 73.369 154.664,66.279 161.472,62.734 171.680 L 61.921 174.023 61.795 294.336 C 61.701 385.097,61.783 415.320,62.128 417.383 C 63.780 427.232,71.044 435.753,80.590 439.037 C 85.379 440.685,84.749 440.677,201.953 440.550 L 314.258 440.429 317.124 439.540 C 326.982 436.480,334.213 429.412,336.994 420.117 C 337.833 417.313,338.321 180.623,337.499 175.251 C 335.921 164.940,328.632 156.097,319.029 152.845 L 315.820 151.758 200.781 151.687 C 91.355 151.620,85.603 151.650,82.900 152.316 M100.640 170.089 C 106.487 172.757,109.696 178.797,108.603 185.075 C 105.701 201.739,81.836 199.548,81.836 182.617 C 81.836 172.151,91.317 165.834,100.640 170.089 M125.676 233.108 C 126.918 233.759,132.198 238.241,139.133 244.531 C 160.006 263.464,175.903 277.844,184.688 285.742 C 200.113 299.608,200.187 299.163,179.102 319.209 C 167.002 330.711,143.030 353.528,129.682 366.247 C 120.627 374.875,110.954 371.946,110.941 360.573 C 110.936 355.561,111.000 355.472,123.549 343.323 C 129.611 337.453,140.635 326.757,148.047 319.553 C 155.459 312.349,163.076 304.959,164.974 303.130 L 168.424 299.805 166.902 298.438 C 162.665 294.633,149.133 282.366,140.796 274.772 C 135.626 270.064,127.234 262.451,122.146 257.857 C 111.059 247.843,110.737 247.382,111.015 241.891 C 111.442 233.466,118.403 229.296,125.676 233.108 M284.961 351.551 C 288.111 352.279,288.346 352.975,288.207 361.172 C 288.091 368.029,288.047 368.378,287.196 369.228 L 286.306 370.117 245.658 370.117 L 205.009 370.117 204.262 369.195 C 203.083 367.738,203.132 354.109,204.322 352.595 L 205.129 351.570 224.537 351.465 C 273.654 351.199,283.496 351.213,284.961 351.551 " stroke="none" fill="#21190c" fill-rule="evenodd"></path><path id="path2" d="M91.438 169.348 C 81.646 172.084,78.314 184.623,85.373 192.170 C 93.150 200.484,107.022 196.088,108.589 184.813 C 109.969 174.891,100.892 166.706,91.438 169.348 " stroke="none" fill="#83f88b" fill-rule="evenodd"></path></g></svg>